<?xml version="1.0" encoding="utf-8"?>
<!-- Generator: Adobe Illustrator 21.0.2, SVG Export Plug-In . SVG Version: 6.00 Build 0)  -->
<svg version="1.1" id="Layer_1" xmlns="http://www.w3.org/2000/svg" xmlns:xlink="http://www.w3.org/1999/xlink" x="0px" y="0px"
	 width="1000px" height="137.7px" viewBox="0 0 1000 137.7" style="enable-background:new 0 0 1000 137.7;" xml:space="preserve">
<style type="text/css">
	.st0{fill:#FFFFFF;}
	.st1{fill:#CFCFCF;}
</style>
<title>Horizontal - White - Light Gray</title>
<path class="st0" d="M245.3,68.1c11.5,0,20.8-9.1,21.1-20.6c0-7.2,0-12.7,0-12.7C266.5,13.9,253,0,233.7,0h-95v137.7H234
	c16.3,0,32.5-12.5,32.5-33.7V89.2C266.5,77.5,257,68.1,245.3,68.1z M216,98.6c0,1.7-1.3,3-3,3h-23.8v-15h23.6c1.8,0,3.2,1.5,3.2,3.2
	l0,0V98.6z M216,46.2c0,1.8-1.5,3.3-3.3,3.3h-23.5V36.1h23.5c1.9,0,3.4,1.5,3.4,3.4L216,46.2z"/>
<path class="st0" d="M127.7,42.8v-9.1c0-6.6-1.8-13-5.1-18.7l0.1-0.2C117,6,107.4,0.5,96.9,0h-0.1c-0.4,0-0.8,0-1.2,0H32.3
	C14.5,0,0,14.5,0,32.3V51l0,0v8.8c0,14.9,12,26.9,26.9,26.9l0,0h46.9c1.9,0,3.4,1.5,3.4,3.5l0,0v8c0,1.9-1.6,3.5-3.5,3.5H50.5v-6.6
	H0v10.2c0,6.2,1.8,12.3,5.1,17.5L5,123c5.6,8.8,15.3,14.4,25.7,14.8h0.1c0.4,0,0.8,0,1.2,0h63.3c17.8,0,32.3-14.4,32.3-32.3l0,0
	V86.8l0,0V76.4c0-14.9-12-26.9-26.9-26.9l0,0H53.9c-1.9,0-3.4-1.5-3.4-3.5l0,0v-6.5c0-1.9,1.6-3.5,3.5-3.5h23.4v6.7L127.7,42.8
	L127.7,42.8z"/>
<rect x="674.1" class="st1" width="50.5" height="137.7"/>
<polygon class="st1" points="664.4,0 549.2,0 549.2,36.3 581.6,36.3 581.6,137.7 632,137.7 632,36.3 664.4,36.3 "/>
<path class="st1" d="M830.5,0h-62.8c-17.8,0-32.3,14.5-32.3,32.3v73.1c0,17.8,14.5,32.3,32.3,32.3h62.8c17.8,0,32.3-14.5,32.3-32.3
	V32.3C862.8,14.5,848.4,0,830.5,0L830.5,0z M812.4,98.4c0,1.8-1.5,3.2-3.2,3.2h-20c-1.8,0-3.2-1.5-3.2-3.2v-59
	c0-1.8,1.5-3.2,3.2-3.2h20c1.8,0,3.2,1.5,3.2,3.2V98.4z"/>
<path class="st1" d="M951,0v49.7L915.8,9.5c-5.1-6-12.6-9.5-20.5-9.5h-21.5v137.7h49V87.8l35.2,40.3c5.1,6,12.6,9.5,20.5,9.5h21.5V0
	H951z"/>
<path class="st1" d="M354.7,0v49.7L319.4,9.5c-5.1-6-12.6-9.5-20.5-9.5h-21.5v137.7h49V87.8l35.2,40.3c5.1,6,12.6,9.5,20.5,9.5h21.5
	V0H354.7z"/>
<path class="st1" d="M531.6,17.9C527.8,7.2,517.7,0,506.3,0h-70v36.3h10.5l-35.2,101.3h50.6l7.2-20.8H516l7.2,20.9h50L531.6,17.9z
	 M492.6,49.6l10.8,31H482L492.6,49.6z"/>
</svg>
