<?xml version="1.0" encoding="utf-8"?>
<!-- Generator: Adobe Illustrator 18.1.1, SVG Export Plug-In . SVG Version: 6.00 Build 0)  -->
<svg version="1.1" id="Layer_1" xmlns="http://www.w3.org/2000/svg" xmlns:xlink="http://www.w3.org/1999/xlink" x="0px" y="0px"
	 viewBox="-278 240 242 121" width="698px" enable-background="new -278 240 242 121" xml:space="preserve">
<path fill="#FFFFFF" d="M-167.3,243.5h3.5l0.4-1.5h-42.9l-0.4,1.5h6.3c5.4,0,9.7,3.8,9.7,11.3c0,4.2-1.8,9.6-4.7,16.1l-27.7,61.4
	l-6.8-79.8c-0.6-6.3,2.5-9,9.6-9h4l0.4-1.5h-60.4l-0.6,1.5h3.9c4.7,0,6.5,2.9,7.1,8.6l10.7,103.1h25.4l42.5-90
	C-180.9,251.7-174.1,243.5-167.3,243.5z M-172.3,355.8c-3.9,0-6.3-1.2-6.3-7.6c0-8.1,2.9-23.8,6.1-38.1c0.4,6.7,5,13.2,11.8,13.2
	c1.7,0,3.1-0.1,4.4-0.4C-162.5,350.1-165,355.8-172.3,355.8z M-51.3,301.6c8.1,0,13.2-6.7,13.2-14.2c0-6.4-4.6-11.1-11.1-11.1
	c-11.8,0-17.4,9.3-27.1,26.5c-2.1-10.7-6.9-24.7-19.5-24.7c-14,0-30.2,20-45,32.4c-6.7,5.6-14.2,9.2-20.1,9.2
	c-6.1,0-9.7-6.3-9.7-17.2c4.3-17.9,6.7-22.6,13.3-22.6c4.6,0,6.5,2.6,6.5,8.1c0,5.7-1.3,15.4-3.8,27.5c6.7-2.1,16.7-10.4,25-19.5
	c-4.4-10.6-13.9-17.8-27.7-17.8c-25.4,0-47.7,22.8-47.7,48.4c0,17.6,12.5,31,32.1,31c32.4,0,45.9-28.1,45.9-47.5
	c0-2.8-0.1-4.9-0.4-7.4c5-5.4,11.4-10.6,16.7-10.6c6,0,10.7,15,15.4,37.7c-4.2,4.6-8.3,13.5-10.4,15c-0.8-8.1-6.1-13.1-13.2-13.1
	c-7.9,0-13.5,7.5-13.5,13.9c0,7.2,5,11.9,11.5,11.9c13.8,0,17.6-13.1,26.3-24.6c2.6,12.4,8.8,24.6,19.3,24.6
	c12.5,0,24.2-10.7,30.2-18.3l-1.1-1.8c-3.9,3.8-7.6,6.3-11.9,6.3c-7.8,0-13.3-16.8-17.6-37.1c2.5-3.5,6.5-12.2,9.3-15.3
	C-64.5,294.8-60.5,301.6-51.3,301.6z"/>
</svg>
