<?xml version="1.0" encoding="utf-8"?>
<!-- Generator: Adobe Illustrator 16.2.1, SVG Export Plug-In . SVG Version: 6.00 Build 0)  -->
<!DOCTYPE svg PUBLIC "-//W3C//DTD SVG 1.1//EN" "http://www.w3.org/Graphics/SVG/1.1/DTD/svg11.dtd">
<svg version="1.1" id="Layer_1" xmlns="http://www.w3.org/2000/svg" xmlns:xlink="http://www.w3.org/1999/xlink" x="0px" y="0px"
	 width="435px" height="120.985px" viewBox="0 0 435 120.985" enable-background="new 0 0 435 120.985" xml:space="preserve">
<path fill="#F94A2B" d="M0,45.324c2.021-1.013,4.951-1.421,7.476-1.421h5.427v45.159c0,2.232-0.585,4.96-2.304,6.452h25.344V23.628
	L0,23.631V45.324z M101.377,30.081v58.983c0,2.231-0.5,4.621-2.219,6.45h44.613V73.119c-3.096,1.42-6.912,2.121-10.598,2.121h-9.677
	v-7.374h5.069c2.765,0,5.209,0.267,7.834,1.382V49.895c-2.625,1.113-5.069,1.382-7.834,1.382l-5.069,0.002v-8.296h9.677
	c3.687,0,7.502,0.697,10.598,2.119V23.63H99.073C100.792,25.121,101.377,27.85,101.377,30.081z M194.46,63.258l-7.373-20.275h11.059
	l7.373-19.354h-51.61c1.619,1.627,3.125,3.451,4.237,5.584l28.553,66.303h15.592l23.503-55.297v48.845
	c-0.014,2.29-0.585,4.96-2.304,6.452h44.698V73.119c-3.061,1.422-6.912,3.041-10.599,3.041h-9.677v-8.294h5.069
	c2.765,0,5.207,0.269,7.833,1.382V49.895c-2.626,1.114-5.068,1.382-7.833,1.382h-5.069v-7.373h9.677c3.687,0,7.538,0.7,10.599,2.12
	V23.631l-58.983-0.003L194.46,63.258z M74.65,51.276H62.669v-7.373h0.934c2.525,0,5.455,0.408,7.36,1.421V23.631H39.649v71.884
	h25.325c-1.718-1.492-2.304-4.22-2.304-6.452V68.787H74.65v20.275c0,2.232-0.586,4.96-2.304,6.452H97.69V23.631l-23.04-0.003V51.276
	z M317.495,63.073c3.838-4.238,6.175-9.799,6.175-15.452c0-16.558-12.331-23.986-25.56-23.985l-28.528-0.006
	c1.71,1.484,2.297,4.193,2.303,6.42l-0.01,59.013c0,2.222-0.594,4.635-2.304,6.452h27.456c-1.719-1.817-2.112-4.347-2.112-6.452
	v-14.63c7.877,1.497,13.119,8.809,13.119,14.661c0,2.221-0.524,4.604-2.237,6.421h27.385c-1.719-1.817-2.163-4.446-2.324-6.661
	C329.937,76.16,325.573,67.213,317.495,63.073z M294.915,55.977V42.89c3.687,0,8.387,1.014,8.387,6.544
	C303.302,54.963,298.602,55.977,294.915,55.977z M424.401,42.982c3.687,0,7.502,0.697,10.599,2.119V23.63h-44.698
	c1.719,1.491,2.304,4.22,2.304,6.451v58.983c0,2.231-0.5,4.621-2.219,6.45H435V73.119c-3.096,1.42-6.912,2.121-10.599,2.121h-9.677
	v-7.374h5.069c2.765,0,5.209,0.267,7.833,1.382V49.895c-2.624,1.113-5.069,1.382-7.833,1.382l-5.069,0.002v-8.296H424.401z
	 M388.895,80.542V51.276h-27.577c-1.413,0-3.031-0.136-4.654-0.645v17.879c1.623-0.505,3.241-0.645,4.654-0.645h7.327v5.529
	c-0.908,0.813-2.88,1.264-4.9,1.264c-8.387,0-14.545-6.616-14.545-14.627c0-8.015,5.99-15.207,14.377-15.207
	c5.069,0,10.788,1.661,17.05,4.616V23.628c0,0-10.408,0-18.432,0c-19.897,0-35.758,15.402-35.758,36.223
	c0,20.387,15.973,37.507,36.68,37.507c11.412,0,22.042-4.644,27.599-10.324C389.603,85.004,388.895,82.977,388.895,80.542z"/>
</svg>
