<svg xmlns="http://www.w3.org/2000/svg" width="492" height="85" viewBox="0 0 492 85"><style type="text/css">.st0{fill:#4D4D4F;} .st1{fill:#E87D1E;stroke:#F6A01A;stroke-width:2;stroke-miterlimit:10;} .st2{fill:#F6A01A;} .st3{fill:#FFEA53;} .st4{fill:#F47B20;} .st5{fill:#FFE512;} .st6{opacity:0.79;} .st7{fill:url(#SVGID_1_);} .st8{opacity:0.79;fill:url(#SVGID_2_);} .st9{opacity:0.2;fill:url(#SVGID_3_);} .st10{fill:#FCE444;} .st11{opacity:0.2;fill:url(#SVGID_4_);} .st12{opacity:0.2;} .st13{fill:url(#SVGID_5_);} .st14{opacity:0.1;fill:url(#SVGID_6_);} .st15{fill:#156268;} .st16{fill:#4E4E50;} .st17{display:none;} .st18{display:inline;fill:#4D4D4F;} .st19{fill:#3E979B;} .st20{fill:#A3EFD9;} .st21{fill:#75D1C1;} .st22{fill:#166E72;} .st23{fill:#312D37;} .st24{fill:#691470;} .st25{fill:#B524D3;} .st26{fill:#891A99;} .st27{fill:#4C0956;} .st28{fill:#FF2400;} .st29{fill:#A51111;} .st30{fill:#CC2200;} .st31{fill:#FF6A5F;} .st32{fill:#EB0083;} .st33{fill:#F072A3;} .st34{fill:#C12187;} .st35{fill:#8B004C;} .st36{fill:#689521;} .st37{fill:#C8D800;} .st38{fill:#1E6931;} .st39{fill:#4EB347;} .st40{fill:#005CB9;} .st41{fill:#B8DDE1;} .st42{fill:#004987;} .st43{fill:#6A86B8;} .st44{fill:#FBE346;} .st45{fill:#F8CC15;} .st46{fill:#231F20;} .st47{fill:#FFFFFF;} .st48{display:inline;} .st49{fill:#585966;} .st50{fill:#DBD4B9;} .st51{fill:#F6F2D5;} .st52{fill:#EFE7BD;} .st53{fill:#C9C0A6;}</style><g id="Horizontal"><path class="st47" d="M17.6 35.7l9.9 29 6.4-19.2c1.1-3.3 2.1-6.6 3-9.4h13.3l-13.2 32.4c-2.1 5.3-3.4 8.4-4.6 12l-10 .6-13.2-32c-1.6-4-3.6-9-5.4-12.9l13.8-.5zM56.4 59.4c0-14 9.3-24.4 23.2-24.4 13.3 0 22.1 9.8 22.1 22.1 0 14-9.4 24.4-23.2 24.4-13.3 0-22.1-9.8-22.1-22.1zm33-.9c0-8.4-4.3-13.6-10.3-13.6-6.4 0-10.5 6-10.5 13.2 0 8.4 4.3 13.6 10.3 13.6 6.4 0 10.5-6 10.5-13.2zM108.7 80.4l15.3-22.7-6-8.8-8.6-12.7 13.9-.5 9.1 14.2 3.1-5.3c1.6-2.6 3.8-6.1 5.4-8.6h13.7l-14.7 22 5.4 7.9c2.5 3.8 6.8 10.3 9.6 14.4l-14 .5-9.3-15.1-2.9 4.7c-1.4 2.3-4.4 7.2-6.1 9.8h-13.9zM188 65.2l1.9-13.9c.6-4 1.6-12 1.8-15.3l9.6-.4c1.1 2.5 2.7 6.1 4 8.9l8.2 18.2 8-18.5c1.2-2.7 2.6-6 3.7-8.5h9.3c.4 3.7 1.4 11.5 2 15.6l2 13.9c.6 4.1 1.8 11.9 2.5 15.2l-12.4.5c-.1-1.8-.7-7.1-1.1-9.6l-1.8-14c-3.1 7.7-8.6 21.4-9.4 23.6l-6.6.3-9.5-23.3-1.5 13.5c-.3 2.5-.8 7.3-.8 9.1h-12.4c.8-3.4 2-11.2 2.5-15.3zM284.2 80.6c-4.2-.3-9.3-.3-14.2-.3-5.5 0-11.5.1-16.2.3.3-3 .4-11.3.4-15.4v-13.9c0-4-.1-12.5-.4-15.6 4.6.2 9.6.3 15.3.3 5.2 0 10-.1 14.3-.3-.3 3.1-.5 6.2-.5 10-3.2-.1-6.4-.1-10.3-.1-1.9 0-4 0-5.8.1-.1.9-.1 2.2-.1 2.8v4.9l13.7-.1c-.1 2.6-.2 5.5-.2 8.8h-13.5v5.7c0 .7 0 2 .1 2.9 1.8 0 3.9.1 5.8.1 4.5 0 8.3-.1 12-.2-.3 3.1-.4 6.2-.4 10zM314.2 80.4h-16.6c.3-3 .4-11.1.4-15.2v-13.9c0-4-.1-12-.4-15.1 2.3 0 7.9-.4 14.9-.4 16.7 0 26 8 26 21.5-.1 14.2-9.5 23.1-24.3 23.1zm-.3-35c-1.3 0-2.1.1-3.1.2-.1.8-.1 2.1-.1 2.8v19.6c0 .8 0 1.7.1 2.6 1 .1 1.8.2 3.3.2 8.4 0 12-5.5 12-13 0-7.9-4.6-12.4-12.2-12.4zM351.1 80.4c.3-3 .4-11.1.4-15.2v-13.9c0-4-.1-12.2-.4-15.2 2.5 0 11.3-.1 13.4-.3-.2 1.8-.3 6.9-.3 9.3v26.2c0 2.4.1 7.3.3 9.1h-13.4zM389.2 48.1c2.2-5.2 3.7-8.5 4.9-12l10.1-.6 13.8 32c1.6 3.9 4 9 5.8 12.9l-13.4.5-3.4-8.4h-15.4c-.8 2.1-2.6 7.1-3 7.9h-13.1l13.7-32.3zm4.9 16.5h10.1l-5-13.6-5.1 13.6z"/><path class="st2" d="M487.9 1.9v33.9l-30.1-16.9z"/><path class="st44" d="M427.8 1.9v33.9l30-16.9z"/><path class="st4" d="M457.8 18.9v33.8l30.1-16.9z"/><path class="st45" d="M457.8 18.9v33.8l-30-16.9z"/></g></svg>